<svg width="166" height="52" viewBox="0 0 166 52" fill="none" xmlns="http://www.w3.org/2000/svg">
<path d="M25.8608 3.87451C21.4193 3.87451 17.0776 5.17219 13.3846 7.60346C9.69168 10.0347 6.81338 13.4904 5.1137 17.5334C3.41403 21.5765 2.96931 26.0253 3.8358 30.3174C4.70229 34.6094 6.84106 38.552 9.98165 41.6464C13.1222 44.7408 17.1236 46.8481 21.4797 47.7018C25.8359 48.5556 30.3511 48.1174 34.4545 46.4427C38.5579 44.7681 42.0651 41.9321 44.5327 38.2934C47.0002 34.6548 48.3172 30.3769 48.3172 26.0008C48.3177 23.095 47.7371 20.2176 46.6087 17.5329C45.4804 14.8482 43.8262 12.4089 41.7409 10.3542C39.6555 8.29948 37.1798 6.66969 34.455 5.5579C31.7303 4.4461 28.8099 3.87408 25.8608 3.87451ZM25.9355 9.92619L30.3361 17.9013L25.9355 16.6566L21.4784 17.9177L25.9355 9.92619ZM20.6368 20.1175L25.9355 18.6193L31.1695 20.1012L34.9742 26.9952L25.9355 24.442L16.7856 27.0279L20.6368 20.1175ZM25.8608 32.9471L11.8703 36.529L15.9356 29.231L25.9288 26.408L35.7975 29.1983L39.8479 36.5356L25.8608 32.9471Z" fill="#2BB19C"/>
<path d="M62.157 7.07861C59.77 7.07861 57.3812 7.09988 54.9941 7.09988V22.0671H57.8593V17.6641H62.157C69.6005 17.6641 69.5772 7.07861 62.157 7.07861ZM62.157 15.0766H57.8593V9.77243H62.157C65.8024 9.77243 65.824 15.0766 62.157 15.0766Z" fill="#2BB19C"/>
<path d="M76.4859 13.2808L72.6248 7.10156H69.2168V7.22914L75.055 15.8896V22.0688H77.9185V15.8896L83.9742 7.22914V7.10156H80.5231L76.4859 13.2808Z" fill="#2BB19C"/>
<path d="M95.5416 16.7662C98.4284 16.1872 99.3829 14.1133 99.3829 12.0606C99.3829 9.47312 97.4955 7.12277 93.9148 7.09988C91.5045 7.09988 89.1008 7.07861 86.6855 7.07861V22.0671H89.5507V17.0655H92.308L96.7352 22.0671H100.141V21.8758L95.5416 16.7662ZM89.5507 14.5189V9.73154H93.9148C95.7159 9.73154 96.5177 10.9272 96.5177 12.126C96.5177 13.3249 95.7359 14.5189 93.9148 14.5189H89.5507Z" fill="#2BB19C"/>
<path d="M112.05 7.09985H108.93L102.115 22.0671H105.219L106.519 19.2457H114.464L115.742 22.0671H118.87L112.05 7.09985ZM107.67 16.6157L110.492 10.2451L113.314 16.6157H107.67Z" fill="#2BB19C"/>
<path d="M129.557 13.5588L124.804 7.1228H121.506V22.0901H124.371V11.2069L129.21 17.728H129.774L134.721 11.2281V22.0901H137.586V7.1228H134.309L129.557 13.5588Z" fill="#2BB19C"/>
<path d="M144.801 7.10156H141.957V22.0688H144.801V7.10156Z" fill="#2BB19C"/>
<path d="M154.994 7.09985H149.018V22.0671H154.994C160.306 22.0671 162.654 18.2399 162.59 14.4567C162.523 10.757 160.201 7.09985 154.994 7.09985ZM154.994 19.3537H151.869V9.77241H154.994C158.29 9.77241 159.68 12.1048 159.744 14.4338C159.811 16.8676 158.443 19.3537 154.994 19.3537Z" fill="#2BB19C"/>
<path d="M63.9361 29.72H61.808L55.002 44.6856H57.0653L58.5328 41.4013H67.2129L68.7069 44.6938H70.7487L63.9361 29.72ZM59.2715 39.6823L62.872 31.5993L66.4742 39.6823H59.2715Z" fill="#2BB19C"/>
<path d="M74.0039 44.707H75.8913V38.4427H84.1814V36.7106H75.8913V31.4931H84.5499V29.7185H74.0039V44.707Z" fill="#2BB19C"/>
<path d="M96.1395 39.1475C97.6147 39.0385 98.7136 38.5434 99.4363 37.6624C100.174 36.7131 100.549 35.5382 100.496 34.3438C100.442 33.1493 99.9638 32.0115 99.1441 31.1298C98.2389 30.1899 96.9767 29.72 95.3577 29.72H88.457V44.6856H90.3445V39.298H94.0346L98.7706 44.6856H101.156L96.1395 39.1475ZM90.3445 37.6297V31.385H95.3577C96.3852 31.385 97.1837 31.7121 97.7663 32.3484C98.3283 32.9465 98.6319 33.7366 98.6129 34.5515C98.6276 34.9579 98.5592 35.3632 98.4117 35.743C98.2643 36.1229 98.0409 36.4697 97.7547 36.7628C97.1837 37.3418 96.3537 37.6308 95.2647 37.6297H90.3445Z" fill="#2BB19C"/>
<path d="M106.661 29.7185H104.773V44.6858H106.661V29.7185Z" fill="#2BB19C"/>
<path d="M118.574 43.1465C116.635 43.1465 115.152 42.58 114.125 41.4471C113.098 40.3142 112.573 38.9207 112.548 37.2666C112.534 35.5983 113.051 34.1808 114.1 33.014C115.15 31.8473 116.644 31.2629 118.582 31.2607C120.276 31.2607 121.693 31.8168 122.835 32.929L124.138 31.7317C123.414 31.0078 122.548 30.4356 121.593 30.0497C120.638 29.6638 119.614 29.4721 118.582 29.4861C116.876 29.4861 115.407 29.8677 114.177 30.631C113.019 31.3163 112.085 32.3142 111.486 33.5063C110.914 34.6872 110.63 35.9831 110.656 37.2911C110.669 39.4283 111.36 41.2351 112.728 42.7114C114.095 44.1878 116.045 44.9255 118.576 44.9244C120.818 44.9244 122.699 44.1829 124.22 42.7L122.892 41.4177C122.33 41.981 121.657 42.425 120.914 42.7223C120.172 43.0196 119.375 43.164 118.574 43.1465Z" fill="#2BB19C"/>
<path d="M135.022 29.72H132.894L126.08 44.6856H128.152L129.619 41.4013H138.299L139.793 44.6938H141.833L135.022 29.72ZM130.355 39.6823L133.962 31.5993L137.564 39.6823H130.355Z" fill="#2BB19C"/>
</svg>
