<svg width="48" height="48" viewBox="0 0 48 48" fill="none" xmlns="http://www.w3.org/2000/svg">
<rect width="48" height="48" rx="12" fill="#242827"/>
<g clip-path="url(#clip0_33_202)">
<path d="M13.5555 18.2222L18.6666 19.6978L24.2844 15.6178L16.2222 15.8489C16.1431 15.8524 16.0664 15.8769 16 15.92L13.4488 17.3867C13.3695 17.4307 13.3052 17.4974 13.2641 17.5783C13.2231 17.6593 13.2074 17.7506 13.2189 17.8406C13.2303 17.9306 13.2686 18.0151 13.3286 18.0831C13.3886 18.1512 13.4677 18.1996 13.5555 18.2222Z" fill="#FFBE00"/>
<path d="M38.6844 13.6533L33.0844 12.4444C32.6135 12.3422 32.126 12.3424 31.6552 12.4452C31.1843 12.5479 30.7411 12.7508 30.3555 13.04L13.44 25.3333L9.37775 25.1555C9.14507 25.1476 8.91578 25.213 8.72226 25.3424C8.52875 25.4719 8.38077 25.6588 8.29924 25.8769C8.21771 26.0949 8.20674 26.3331 8.26788 26.5578C8.32901 26.7824 8.45917 26.9822 8.63997 27.1288L12.5955 30.2666C12.6606 30.3192 12.7382 30.3541 12.8206 30.3681C12.9031 30.3821 12.9878 30.3747 13.0666 30.3466C14.1955 29.9111 18.4 27.68 23.3689 24.9511L24.3644 35.1822C24.3729 35.2708 24.4053 35.3554 24.4583 35.4269C24.5114 35.4984 24.5829 35.5541 24.6652 35.5879C24.7475 35.6218 24.8375 35.6325 24.9255 35.619C25.0135 35.6054 25.0961 35.5681 25.1644 35.5111L27.3866 33.6622C27.5083 33.5602 27.5901 33.4185 27.6177 33.2622L29.7244 21.4488C33.28 19.4755 36.6755 17.5644 39.0666 16.2133C39.3148 16.0783 39.5154 15.8702 39.6414 15.6174C39.7673 15.3645 39.8125 15.079 39.7708 14.7996C39.7291 14.5202 39.6025 14.2604 39.4081 14.0554C39.2138 13.8503 38.9612 13.7099 38.6844 13.6533Z" fill="#FFBE00"/>
</g>
<defs>
<clipPath id="clip0_33_202">
<rect width="32" height="32" fill="white" transform="translate(8 8)"/>
</clipPath>
</defs>
</svg>
